<svg xmlns="http://www.w3.org/2000/svg" viewBox="0 0 229.98 59.98"><defs><style>.cls-1{fill:#f4907b;}.cls-2{fill:#f0b464;}</style></defs><title>hero_logo</title><g id="Layer_2" data-name="Layer 2"><g id="Layer_1-2" data-name="Layer 1"><path class="cls-1" d="M201.46,23.71a15.14,15.14,0,0,0,0,6.63c1,3.84,1,7.78,1.21,11.7.23,4.15.15,8.31.71,12.42a8,8,0,0,1-.43,3c-.1.46-.39.6-.79.71a19.63,19.63,0,0,1-6,1c-.76,0-1.07-.16-1.21-1a152.44,152.44,0,0,1-2.32-20.54c-.22-7.19-1.06-14.36-.84-21.57.12-3.85-.05-7.69-.18-11.54A1.68,1.68,0,0,1,192,3.3c2.3-2.76,6.26-3.45,8.67.19,4.42,6.67,7.72,13.91,11,21.18,2.94,6.52,5.77,13.09,8.56,20.09a8.39,8.39,0,0,0,.13-1.11c0-6.49.06-13-.14-19.48-.12-4-.89-8-1-12,0-2.67-1.26-4.92-1.84-7.38-.45-2,.17-3,2.1-3.71a12.2,12.2,0,0,1,8.68-.33,1.75,1.75,0,0,1,1,.7,1.68,1.68,0,0,1,.27,1.18c-.15,6.82-.28,13.65-.31,20.47v27.6c0,.84-.11,1.69.68,2.33.33.28.12.84,0,1.34A6.63,6.63,0,0,1,224.72,59c-.85.22-1.77.21-2.64.37a4.81,4.81,0,0,1-2.44-.16,4.72,4.72,0,0,1-2-1.35,16,16,0,0,1-3.05-4.32c-4.71-9.44-8.88-19.13-12.72-29A3.19,3.19,0,0,0,201.46,23.71Z"/><path class="cls-1" d="M191.46,42a18.2,18.2,0,0,1-1.7,9.16c-1.83,4.23-4.78,7.1-9.44,8-6.92,1.37-13.24.31-18.91-4.19-5.23-4.15-8-9.69-9.94-15.88-1.59-5.19-.91-10.29,0-15.44,1.6-8.54,6.66-14.4,14.15-18.32,3.78-2,7.63-4,11.91-4.63a15.64,15.64,0,0,1,7.29.41c1.41.46,2.64,1.18,2.94,2.84a5.13,5.13,0,0,1-.16,2.46,5.12,5.12,0,0,1-1.31,2.08c-.73.77-1.85.59-2.78.62-4.6.15-8.9,1.55-13.22,2.94a8.65,8.65,0,0,0-3,1.82,8.77,8.77,0,0,0-2.05,2.88,6.52,6.52,0,0,1-.78,1.29,14.19,14.19,0,0,0-2.88,4.9,14,14,0,0,0-.68,5.63,54.92,54.92,0,0,0,2,12.75,15.25,15.25,0,0,0,14.84,10.37,3.76,3.76,0,0,0,2-.49,3.8,3.8,0,0,0,1.43-1.44,10.91,10.91,0,0,0,1.76-6.38c-.05-.75-.27-.93-1-.78-1.52.32-3.08.56-4.63.79-2.45.37-3.84-.8-3.84-3.23v-3.3a3.33,3.33,0,0,1,.34-1.46A3.5,3.5,0,0,1,176,33.61a3.61,3.61,0,0,1,1.5,0c2.2.52,4.29,0,6.42-.3a22.42,22.42,0,0,1,3.93-.1c1.61.06,3.55,2.2,3.59,3.9C191.49,38.54,191.46,40,191.46,42Z"/><path class="cls-1" d="M111.71,12.15c-4.4-.22-7.62,0-10.69,1.63-2.55,1.38-3.6,3-2.17,5.52a56.8,56.8,0,0,0,8.37,11c1.33,1.43,2.66,2.85,4,4.3,2.19,2.43,3,5.46,3.57,8.56a22.75,22.75,0,0,1,.28,5.08,5.28,5.28,0,0,1-.56,2.27A5.36,5.36,0,0,1,113,52.34a30.59,30.59,0,0,1-16.39,6.82,39,39,0,0,1-5.7.51c-3.9-.19-5-2.9-4.57-6A2.08,2.08,0,0,1,87,52.28a2,2,0,0,1,1.4-.57,58.06,58.06,0,0,0,12-2h.13c3-.75,3.52-1.7,2.66-4.65a1.18,1.18,0,0,0-.25-.57c-3.45-3.11-5.57-7.24-8.37-10.84-2.26-2.91-4.35-5.94-6.53-8.92-2.55-3.5-2.88-7.24-1.49-11.31,1.24-3.66,4-6,6.78-8.33C95.89,3,99,1.85,102.09.6a1.3,1.3,0,0,1,.46-.18c3.39,0,6.68-.69,10,0A3.24,3.24,0,0,1,114.1,1a3.17,3.17,0,0,1,1,1.3c.72,1.53,1.43,3.06,2,4.66a3,3,0,0,1,.14,1.22,2.81,2.81,0,0,1-.4,1.17,4.56,4.56,0,0,1-5.17,2.76Z"/><path class="cls-2" d="M63.43,25.35c3-4.84,6.35-9.17,8.57-14.2a48.41,48.41,0,0,1,4.12-8.28c1.11-1.57,1.57-1.76,3.44-1.27,1.51.4,3,.89,4.51,1.29,1.24.33,1.45,1.09,1.36,2.29-.16,2.4-1.38,4.31-2.54,6.29q-5.73,10-11.4,20a6.29,6.29,0,0,1-1.93,2A4.26,4.26,0,0,0,68.24,35a4.17,4.17,0,0,0-.44,2c-.22,5.81.2,11.6.22,17.4a9.7,9.7,0,0,1-1,3.92c-.09.19-.21.45-.37.5-1.88.55-3.71,1.63-5.75.63-.6-.3-1.16-.71-1.78-1A2.42,2.42,0,0,1,58,57.52a2.38,2.38,0,0,1-.34-1.47c.13-4.87.37-9.74.42-14.62,0-2.7-.22-5.4-.37-8.1A2.48,2.48,0,0,0,57,32.11C51.76,24.41,46.51,16.7,41.2,9c-1.06-1.52-.85-3.12-.85-4.76a.92.92,0,0,1,.1-.36,1,1,0,0,1,.24-.3c1.62-1.09,3-2.64,5-2.95,1.85-.28,3.08.49,3.35,2.35.43,3.14,2.54,5.39,4,8,1.12,2,2.19,4.12,3.39,6.13A7.79,7.79,0,0,0,59.22,20a7.09,7.09,0,0,1,2.6,2.83C62.28,23.62,62.81,24.39,63.43,25.35Z"/><path class="cls-1" d="M128.83,59.12c-1.77,0-3.22.19-4.56-.59a3.19,3.19,0,0,1-1.84-3.32,14.57,14.57,0,0,1,1.15-3.88,1.38,1.38,0,0,1,.49-.65,1.45,1.45,0,0,1,.78-.26,13,13,0,0,0,1.76-.23,2.71,2.71,0,0,0,1-.23,2.62,2.62,0,0,0,.82-.62,2.4,2.4,0,0,0,.51-.89,2.56,2.56,0,0,0,.12-1V26.06c0-4.64.54-9.21,1-13.8.15-1.7.19-1.7-1.49-1.7-1.23,0-2.46,0-3.69,0-1.51,0-2-.42-2.14-1.9A28.83,28.83,0,0,1,123,3.05c.07-.85,1-1.15,1.9-.62.65.39,1.19.57,1.81,0a1.62,1.62,0,0,1,.58-.27,1.72,1.72,0,0,1,.64,0A38.29,38.29,0,0,0,139.51,1a7.45,7.45,0,0,1,3.89.23c2.41.67,3.33,2,3.23,4.46-.12,3.6-.12,3.59-3.63,3.79-.68,0-1.35.23-2,.22-2.38,0-2.09.3-1.92,2.19.61,6.84-.22,13.63-.5,20.43a124.8,124.8,0,0,0-.15,14.73c.09,1.18.67,1.44,1.7,1.32a9.68,9.68,0,0,1,4.49.57A3.25,3.25,0,0,1,147,52.47a6.55,6.55,0,0,1-.65,3.08,3.26,3.26,0,0,1-2.92,1.85c-3.28.29-6.55.85-9.81,1.31A23.08,23.08,0,0,1,128.83,59.12Z"/><path class="cls-2" d="M38.32,33.36c-.18-3.13-.18-6.26-.18-9.4a13.31,13.31,0,0,0-1.82-6.39c-2-3.59-4.23-7-6.19-10.65A5.51,5.51,0,0,0,26.66,4c-3.56-1.06-7-2.31-10.5-3.54A6.05,6.05,0,0,0,12.82.09,29.08,29.08,0,0,1,7.63.34H3.94A1.59,1.59,0,0,0,2.79.66a1.67,1.67,0,0,0-.61,1,11.85,11.85,0,0,0-.27,3.14c0,1.18,0,2.37-.08,3.56C1.28,15,.51,21.51.66,28.13a94.68,94.68,0,0,1-.23,9.53c-.23,2.91-.85,5.87.18,8.79a8.73,8.73,0,0,1,.08,5.6,20.82,20.82,0,0,0-.62,3.24c-.28,2.21.23,3,2.29,3.87a7,7,0,0,0,4.37.13,2.22,2.22,0,0,1,1.37-.14c3.25,1.22,6.57.85,9.9.44,5.77-.77,10.76-2.92,14.31-7.79,1-1.43,2.31-2.72,2.87-4.45.67-2.1,1.26-4.24,2-6.3A20.31,20.31,0,0,0,38.32,33.36Zm-9.89,6.78c-.74,3.71-3.2,6-6.44,7.5a23.66,23.66,0,0,1-10.08,2.11c-.71-.16-1.7.51-2.21-.06s-.14-1.45-.24-2.2c-.84-6.78,0-13.44.32-20.16.24-5.5.54-11,.78-16.5,0-.84.36-1.14,1.16-1.07a2.51,2.51,0,0,0,1,0c4-1.41,7.23.56,10.4,2.62,2.43,1.58,3.5,4,4.5,6.59,1.7,4.34,1.35,8.89,1.54,13.39a32.89,32.89,0,0,1-.75,7.79Z"/></g></g></svg>