<svg xmlns="http://www.w3.org/2000/svg" viewBox="0 0 18 12"><defs><style>.cls-1{fill:#917974;}</style></defs><title>menu</title><g id="Layer_2" data-name="Layer 2"><g id="Layer_1-2" data-name="Layer 1"><path class="cls-1" d="M1,12a1,1,0,0,1-.71-.29,1,1,0,0,1,0-1.42A1,1,0,0,1,1,10H17a1,1,0,0,1,.71.29A.94.94,0,0,1,18,11a1,1,0,0,1-.29.71A.94.94,0,0,1,17,12ZM1,7a1,1,0,0,1-.71-.29,1,1,0,0,1,0-1.42A1,1,0,0,1,1,5H17a1,1,0,0,1,.71.29A.94.94,0,0,1,18,6a1,1,0,0,1-.29.71A.94.94,0,0,1,17,7ZM1,2a1,1,0,0,1-.71-.29A1,1,0,0,1,0,1,1,1,0,0,1,.29.29,1,1,0,0,1,1,0H17a1,1,0,0,1,.71.29A.94.94,0,0,1,18,1a1,1,0,0,1-.29.71A.94.94,0,0,1,17,2Z"/></g></g></svg>