<svg xmlns="http://www.w3.org/2000/svg" viewBox="0 0 271.37 101.51"><defs><style>.cls-1{fill:#f4907b;}.cls-2{fill:#f0b464;}.cls-3{fill:#f0b565;}.cls-4{fill:#f4927d;}.cls-5{fill:#f4917b;}.cls-6{fill:#f4917c;}.cls-7{fill:#f0b564;}.cls-8{fill:#f0b566;}.cls-9{fill:#f59884;}.cls-10{fill:#f1ba6f;}.cls-11{fill:#f4927c;}</style></defs><title>logo</title><g id="Layer_2" data-name="Layer 2"><g id="Layer_1-2" data-name="Layer 1"><path class="cls-1" d="M237.7,28a17.92,17.92,0,0,0,0,7.82c1.22,4.54,1.18,9.19,1.43,13.82.27,4.89.17,9.8.84,14.66a9.6,9.6,0,0,1-.51,3.53c-.12.54-.46.7-.93.83a23.17,23.17,0,0,1-7.06,1.18c-.9,0-1.26-.19-1.43-1.19a179.1,179.1,0,0,1-2.73-24.24c-.27-8.49-1.26-16.95-1-25.46.14-4.55-.05-9.08-.21-13.62a2,2,0,0,1,.38-1.42c2.71-3.26,7.39-4.07,10.23.22,5.21,7.87,9.11,16.42,13,25,3.47,7.7,6.81,15.45,10.1,23.71a10.1,10.1,0,0,0,.15-1.3c0-7.66.07-15.32-.16-23-.14-4.73-1.05-9.45-1.13-14.18-.06-3.16-1.49-5.81-2.17-8.72-.54-2.34.19-3.53,2.47-4.37A14.33,14.33,0,0,1,269.21.88a2,2,0,0,1,1.49,2.21c-.18,8.06-.33,16.11-.36,24.16,0,10.86,0,21.72,0,32.58,0,1-.13,2,.8,2.75.39.33.14,1,0,1.58a7.81,7.81,0,0,1-6,5.48c-1,.26-2.08.25-3.11.44a5.66,5.66,0,0,1-5.3-1.78,18.7,18.7,0,0,1-3.6-5.1c-5.56-11.15-10.47-22.58-15-34.2C238.09,28.73,237.94,28.48,237.7,28Z"/><path class="cls-1" d="M225.9,49.62a21.48,21.48,0,0,1-2,10.81c-2.17,5-5.64,8.39-11.14,9.47-8.17,1.62-15.63.37-22.32-4.94-6.17-4.9-9.48-11.44-11.72-18.75-1.88-6.12-1.08-12.14,0-18.22,1.88-10.08,7.85-17,16.69-21.63,4.46-2.36,9-4.68,14.05-5.46a18.45,18.45,0,0,1,8.61.48c1.66.54,3.11,1.4,3.47,3.36a5.94,5.94,0,0,1-1.74,5.35c-.86.91-2.18.7-3.28.74-5.43.17-10.5,1.83-15.6,3.47a10.16,10.16,0,0,0-6,5.54,7.58,7.58,0,0,1-.92,1.53,16.41,16.41,0,0,0-4.2,12.43,64.85,64.85,0,0,0,2.35,15.05,18,18,0,0,0,17.5,12.24,4.44,4.44,0,0,0,4-2.28,12.85,12.85,0,0,0,2.08-7.53c-.06-.89-.32-1.1-1.19-.92-1.8.37-3.63.66-5.46.93-2.89.44-4.53-.95-4.54-3.81v-3.9a4.06,4.06,0,0,1,4.88-3.92c2.59.61,5.06,0,7.57-.35a25.73,25.73,0,0,1,4.64-.12c1.9.07,4.19,2.6,4.24,4.6C225.94,45.5,225.9,47.2,225.9,49.62Z"/><path class="cls-1" d="M131.81,14.36c-5.19-.26-9,0-12.62,1.92-3,1.63-4.24,3.5-2.56,6.52a66.93,66.93,0,0,0,9.88,13c1.57,1.69,3.14,3.37,4.68,5.08,2.59,2.87,3.52,6.44,4.21,10.1a26.06,26.06,0,0,1,.33,6,6.23,6.23,0,0,1-2.39,4.81A36,36,0,0,1,114,69.84a45.85,45.85,0,0,1-6.72.6c-4.6-.22-5.86-3.42-5.39-7.1a2.39,2.39,0,0,1,2.38-2.29,68.65,68.65,0,0,0,14.16-2.34.8.8,0,0,0,.15,0c3.48-.88,4.15-2,3.14-5.49a1.47,1.47,0,0,0-.3-.67c-4.07-3.67-6.57-8.54-9.87-12.8-2.67-3.43-5.14-7-7.71-10.52-3-4.13-3.4-8.55-1.76-13.35,1.47-4.32,4.69-7.12,8-9.84,3.06-2.5,6.76-3.84,10.38-5.32A1.67,1.67,0,0,1,121,.51c4,0,7.88-.81,11.83,0a3.81,3.81,0,0,1,3,2.26c.85,1.81,1.69,3.62,2.38,5.5a3.34,3.34,0,0,1-.3,2.83A5.38,5.38,0,0,1,131.81,14.36Z"/><path class="cls-2" d="M74.84,29.93c3.49-5.71,7.5-10.82,10.11-16.75,1.48-3.34,2.76-6.76,4.87-9.78,1.3-1.85,1.85-2.08,4.05-1.5,1.78.47,3.54,1.05,5.33,1.53,1.46.38,1.7,1.28,1.6,2.7-.19,2.83-1.63,5.08-3,7.42q-6.75,11.79-13.45,23.6a7.5,7.5,0,0,1-2.28,2.34A5,5,0,0,0,80,43.69c-.26,6.86.24,13.69.26,20.54a11.38,11.38,0,0,1-1.16,4.62c-.1.22-.25.53-.44.59-2.21.65-4.37,1.93-6.78.74-.71-.35-1.37-.83-2.1-1.15A2.76,2.76,0,0,1,68,66.17c.15-5.75.43-11.5.49-17.25,0-3.19-.26-6.38-.43-9.57a3,3,0,0,0-.78-1.44c-6.21-9.08-12.4-18.18-18.67-27.23-1.25-1.79-1-3.68-1-5.61a1.11,1.11,0,0,1,.4-.78C49.92,3,51.5,1.17,53.92.8c2.19-.33,3.64.58,3.95,2.78.51,3.7,3,6.36,4.68,9.44,1.32,2.41,2.58,4.86,4,7.24a9.08,9.08,0,0,0,3.32,3.39A8.38,8.38,0,0,1,72.94,27C73.49,27.89,74.11,28.8,74.84,29.93Z"/><path class="cls-1" d="M152,69.8c-2.08,0-3.79.22-5.37-.7a3.77,3.77,0,0,1-2.18-3.92,17.39,17.39,0,0,1,1.36-4.58,1.63,1.63,0,0,1,1.5-1.07c.7,0,1.39-.18,2.08-.27a3,3,0,0,0,2.9-3.27c0-8.41,0-16.82,0-25.22,0-5.47.64-10.87,1.13-16.29.18-2,.23-2-1.76-2-1.45,0-2.9,0-4.35-.05-1.78-.05-2.32-.5-2.52-2.24a33.74,33.74,0,0,1,.34-6.58c.08-1,1.22-1.35,2.24-.73.77.46,1.4.68,2.14,0a1.8,1.8,0,0,1,1.43-.32,45,45,0,0,0,13.67-1.32,8.83,8.83,0,0,1,4.59.27c2.84.79,3.92,2.33,3.81,5.27-.15,4.25-.15,4.24-4.29,4.47-.8,0-1.59.27-2.38.26-2.81,0-2.47.35-2.27,2.59.72,8.07-.25,16.08-.58,24.11a148.39,148.39,0,0,0-.18,17.39c.11,1.39.79,1.7,2,1.55a11.38,11.38,0,0,1,5.3.68,3.81,3.81,0,0,1,2.8,4.12,7.69,7.69,0,0,1-.77,3.63,3.85,3.85,0,0,1-3.44,2.19c-3.87.34-7.73,1-11.58,1.54A27,27,0,0,1,152,69.8Z"/><path class="cls-3" d="M229.24,93.8c0,2,0,4.07,0,6.11,0,.51.19,1.27-.58,1.32s-.67-.71-.67-1.23c0-2.69,0-5.39,0-8.09,0-.44-.11-1,.4-1.19s.92.23,1.22.61l4.67,6c.23.3.5.57,1,1.12,0-2.38,0-4.4,0-6.43,0-.56-.18-1.41.69-1.38s.73.82.73,1.43V99.9c0,.55,0,1.18-.64,1.37s-.89-.36-1.18-.74q-2.67-3.42-5.3-6.86Z"/><path class="cls-3" d="M150.47,98.18c0-2.14,0-4.19,0-6.24,0-.53-.11-1.27.66-1.26s.76.67.76,1.24q0,4,0,8.1c0,.51,0,1.06-.6,1.25s-.9-.34-1.2-.72c-1.77-2.28-3.53-4.58-5.63-6.81,0,1.89,0,3.79,0,5.69,0,.64.48,1.81-.68,1.77-.92,0-.53-1.13-.54-1.77-.05-2.34,0-4.69,0-7,0-.6-.32-1.45.51-1.7s1.09.6,1.47,1.08c1.48,1.88,2.91,3.8,4.38,5.7C149.76,97.74,149.88,98.1,150.47,98.18Z"/><path class="cls-4" d="M24.55,96c0-1.35,0-2.7,0-4a1.25,1.25,0,0,1,1.49-1.42c1.4,0,2.8,0,4.2,0,.53,0,1.09.07,1.1.73s-.55.73-1.07.73c-1.05,0-2.11,0-3.16,0s-.91.83-.89,1.45-.41,1.64.9,1.62c.9,0,1.8,0,2.7,0,.45,0,.94.21.87.81s-.47.6-.9.6c-.9,0-1.8,0-2.7,0-.64,0-.85.25-.9.88-.21,2.38-.15,2.47,2.17,2.47.7,0,1.4,0,2.1,0,.49,0,.92.2.88.78s-.42.65-.85.65c-1.6,0-3.2,0-4.8,0-.95,0-1.15-.64-1.15-1.42V96Z"/><path class="cls-5" d="M75.29,95.9v4.21c0,.57,0,1.19-.81,1.17s-.71-.59-.71-1.11a.75.75,0,0,0,0-.15c-.15-1.12.57-2.84-.33-3.23-1.27-.55-2.94-.19-4.44-.2-.65,0-.66.47-.66.93,0,1,0,1.91,0,2.86,0,.49-.22.92-.78.91s-.71-.46-.71-1q0-4.36,0-8.71c0-.48.09-1,.68-1s.77.42.81.91,0,.7,0,1.05c0,2.65,0,2.65,2.58,2.65,2.84,0,2.84,0,2.85-2.81,0-.3,0-.6,0-.9,0-.52.21-.93.75-.94s.75.41.75.93c0,0,0,.1,0,.15Z"/><path class="cls-5" d="M5.53,95.85c0-1.3,0-2.6,0-3.9,0-.92.28-1.42,1.28-1.4,1.45,0,2.9,0,4.35,0,.54,0,1.1.14,1.12.75s-.55.72-1.09.72c-.85,0-1.71,0-2.56,0a1.78,1.78,0,0,0-1.53,2.7c.21.41.57.35.91.35.85,0,1.7,0,2.55,0,.47,0,1,.12,1,.69s-.52.75-1,.75a10.09,10.09,0,0,1-1.65,0C7.42,96.31,7,96.79,7,98.28S7.41,100,8.7,99.9a17.39,17.39,0,0,1,2.7,0c.47,0,.91.24.86.82s-.44.61-.88.61H6.57c-.78,0-1-.43-1-1.14C5.54,98.75,5.53,97.3,5.53,95.85Z"/><path class="cls-3" d="M117.51,90.56c.75,0,1.5,0,2.25,0,.54,0,1.06.16,1,.81s-.52.65-1,.65c-1.1,0-2.2,0-3.3,0s-.92.82-.88,1.44-.48,1.64.85,1.63c.85,0,1.71,0,2.56,0,.52,0,1.08.08,1.06.76s-.62.68-1.12.69h-1.36c-1.89,0-2.61,1.06-2,2.87.19.55.59.46,1,.47h3.16c.53,0,1.08.14,1.08.76s-.58.7-1.1.7c-1.46,0-2.91,0-4.36,0-.88,0-1.28-.32-1.27-1.23,0-2.75,0-5.5,0-8.25,0-1,.41-1.36,1.36-1.32C116.11,90.59,116.81,90.56,117.51,90.56Z"/><path class="cls-3" d="M200,95.9c0-1.35,0-2.7,0-4.05,0-.87.3-1.31,1.21-1.3,1.45,0,2.9,0,4.35,0,.52,0,1.09.07,1.09.73s-.55.73-1.08.73c-1.05,0-2.1,0-3.15,0-1.21,0-.91.82-.88,1.44s-.46,1.64.87,1.63c.8,0,1.6,0,2.4,0,.53,0,1.22,0,1.18.79s-.65.64-1.15.65h-1.2c-2.09,0-2.62.72-2.12,2.77.16.65.6.56,1,.57h3.15c.48,0,.94.15,1,.72s-.43.73-.93.73c-1.55,0-3.1,0-4.65,0-.88,0-1.09-.5-1.08-1.26C200,98.69,200,97.29,200,95.9Z"/><path class="cls-3" d="M219.26,95.82c0-1.35,0-2.7,0-4,0-.8.29-1.23,1.13-1.22h4.5c.53,0,1.06.1,1,.79s-.53.66-1,.66h-2.55a1.77,1.77,0,0,0-1.52,2.7c.21.41.57.34.9.35.75,0,1.5,0,2.25,0,.54,0,1.24,0,1.27.73s-.68.71-1.23.72c-.75,0-1.5,0-2.25,0s-1,.29-1,1c-.07,2.3-.1,2.3,2.17,2.3.7,0,1.4,0,2.1,0,.49,0,.91.19.88.78s-.41.65-.84.65h-4.8c-.8,0-1-.47-1-1.17C219.26,98.72,219.26,97.27,219.26,95.82Z"/><path class="cls-3" d="M157.23,101.42a4.16,4.16,0,0,1-2.75-.87c-.45-.35-1-.71-.63-1.32s.93-.22,1.4.09a3.58,3.58,0,0,0,3.55.51,1.42,1.42,0,0,0,1-1.19,1.36,1.36,0,0,0-.84-1.46,17.63,17.63,0,0,0-2.13-.69c-2.22-.64-3.09-1.74-2.8-3.59.24-1.49,1.63-2.4,3.65-2.41a4.16,4.16,0,0,1,2.92,1c.35.31.71.64.36,1.14s-.76.25-1.15,0a3.8,3.8,0,0,0-3.14-.57,1.47,1.47,0,0,0-1.21,1.19,1.34,1.34,0,0,0,.95,1.52,12.93,12.93,0,0,0,1.85.61c2.43.64,3.27,1.6,3,3.53C161.08,100.47,159.62,101.44,157.23,101.42Z"/><path class="cls-6" d="M61.86,90.5a5.23,5.23,0,0,1,2.74.72.65.65,0,0,1,.37.87.7.7,0,0,1-1,.42A8.33,8.33,0,0,0,62.58,92a3.77,3.77,0,0,0-4.09,1.86,4.63,4.63,0,0,0,.31,4.68,3.93,3.93,0,0,0,4.46,1.23c.19-.06.37-.17.56-.22.46-.14.95-.15,1.14.38s-.3.78-.7,1a5.49,5.49,0,0,1-7.11-7.79A5.23,5.23,0,0,1,61.86,90.5Z"/><path class="cls-6" d="M18.22,98.92c1.08-2.66,2-4.92,2.9-7.18.22-.54.38-1.34,1.16-1s.4,1,.17,1.55L19,100.39c-.17.42-.36.89-.9.88s-.71-.47-.89-.89c-1.17-2.75-2.35-5.5-3.51-8.25-.21-.5-.47-1.12.23-1.43s.91.4,1.11.86C16.09,93.87,17.07,96.21,18.22,98.92Z"/><path class="cls-3" d="M186.09,90.56h2.25c.5,0,1,.19,1,.71s-.45.74-.95.74c-1.05,0-2.11.06-3.15,0s-1.17.52-1.06,1.3-.53,2,1.06,2c.85,0,1.7,0,2.54,0,.41,0,.85,0,.83.62s-.4.64-.83.66h-.9c-2.7,0-2.7,0-2.71,2.79v.9c0,.54-.12,1.06-.78,1s-.72-.48-.72-1c0-2.85,0-5.69,0-8.54a1.08,1.08,0,0,1,1.2-1.21Z"/><path class="cls-7" d="M191.33,95.87c0-1.35,0-2.7,0-4.05,0-.78.25-1.26,1.11-1.26h4.5c.47,0,1,.09,1,.67s-.49.78-1,.78c-1,0-2,.07-3,0-1.24-.1-1.14.71-1.05,1.44s-.56,1.86,1,1.81c.85,0,1.7,0,2.55,0,.4,0,.87,0,.89.57s-.46.7-.94.71H196c-1,.1-2.42-.48-3,.29s-.18,2-.21,3.05c0,.59.09,1.37-.75,1.38s-.75-.77-.76-1.36C191.32,98.57,191.33,97.22,191.33,95.87Z"/><path class="cls-8" d="M241.85,96.58c0-.55,0-1.1,0-1.65a6.3,6.3,0,0,0-.11-2.51c-.43-.88-1.53-.25-2.32-.4-.48-.09-.91-.19-.88-.78s.41-.66.85-.66q3.29,0,6.59,0c.49,0,.93.2.89.77s-.52.63-1,.68c-2.49.26-2.48.27-2.49,2.72,0,1.8,0,3.59,0,5.39,0,.57,0,1.19-.81,1.15s-.73-.58-.73-1.11C241.86,99,241.85,97.77,241.85,96.58Z"/><path class="cls-3" d="M256.91,90.59c.4,0,.63.39.86.71.65.88,1.32,1.76,1.91,2.68s.89.7,1.36,0c.62-1,1.3-1.9,2-2.82.27-.35.6-.78,1.11-.36s.32.79.07,1.21c-.11.17-.24.33-.36.48-1.8,2.25-3.43,4.56-2.79,7.7.1.5,0,1.09-.68,1.13s-.87-.52-.77-1c.65-3.25-1-5.64-2.92-7.92a2.38,2.38,0,0,1-.46-.76A.75.75,0,0,1,256.91,90.59Z"/><path class="cls-6" d="M51.15,91.47a5.27,5.27,0,0,1-.32.55,15.87,15.87,0,0,1-1.2,1.71,6.81,6.81,0,0,0-2,5.85,3.63,3.63,0,0,1,0,1c0,.38-.25.67-.68.64a.63.63,0,0,1-.56-.6,1.48,1.48,0,0,1,0-.59c.57-2.89-.76-5.08-2.52-7.16-.48-.56-1.65-1.35-.69-2.08,1.13-.85,1.32.74,1.87,1.28a11.84,11.84,0,0,1,1.51,2c.39.59.67.61,1.07,0,.68-1.05,1.4-2.07,2.12-3.08.23-.34.54-.64,1-.43A.75.75,0,0,1,51.15,91.47Z"/><path class="cls-5" d="M83.41,95.34v.15c0,1.34-.44,3,.17,4s2.48.24,3.77.42c.51.07,1.09,0,1.12.71s-.51.76-1,.76c-1.45,0-2.9,0-4.35,0-.93,0-1.2-.45-1.19-1.3,0-2.75,0-5.49,0-8.23,0-.58,0-1.22.79-1.18s.72.69.72,1.25C83.4,93,83.41,94.19,83.41,95.34Z"/><path class="cls-7" d="M105.65,95.79c0-1.25,0-2.5,0-3.75,0-.58-.12-1.38.71-1.39s.79.84.79,1.46c0,2.2,0,4.39,0,6.59,0,.91.27,1.26,1.19,1.19a19.06,19.06,0,0,1,2.39,0c.61,0,1.52-.19,1.48.77s-1,.67-1.54.68c-1.15,0-2.3,0-3.45,0s-1.65-.33-1.58-1.53S105.65,97.13,105.65,95.79Z"/><path class="cls-8" d="M250.23,95.38c0,1.1.05,2.2,0,3.3-.05.89.22,1.28,1.17,1.21s1.9,0,2.85,0c.54,0,1.07.11,1,.78s-.49.68-1,.68c-1.5,0-3,0-4.5,0-.75,0-1.09-.34-1.09-1.09V91.71c0-.52.06-1.1.74-1s.77.57.77,1.12Z"/><path class="cls-9" d="M79.43,95.94c0,1.4,0,2.8,0,4.19,0,.59-.2,1.16-.9,1.16s-.75-.61-.75-1.1c0-2.8,0-5.59,0-8.39,0-.58.18-1.19.88-1.14s.79.66.79,1.24C79.44,93.25,79.43,94.6,79.43,95.94Z"/><path class="cls-10" d="M180.15,96c0,1.4,0,2.8,0,4.19,0,.59-.21,1.16-.91,1.15s-.74-.62-.75-1.11c0-2.8,0-5.59,0-8.39,0-.58.18-1.17.88-1.13s.78.57.78,1.1C180.15,93.16,180.15,94.56,180.15,96Z"/><path class="cls-2" d="M45.21,39.39C45,35.69,45,32,45,28.3a15.81,15.81,0,0,0-2.14-7.55c-2.36-4.23-5-8.27-7.31-12.57a6.57,6.57,0,0,0-4.09-3.46C27.26,3.47,23.16,2,19.07.54A7.21,7.21,0,0,0,15.13.12,33.17,33.17,0,0,1,9,.41c-1.45,0-2.9,0-4.35,0A1.9,1.9,0,0,0,2.58,2,13.29,13.29,0,0,0,2.26,5.7c0,1.4,0,2.8-.1,4.2C1.51,17.66.61,25.4.78,33.22A111.06,111.06,0,0,1,.51,44.46c-.27,3.44-1,6.93.21,10.38a10.31,10.31,0,0,1,.1,6.61,23.42,23.42,0,0,0-.73,3.82c-.34,2.61.27,3.59,2.7,4.57A8.18,8.18,0,0,0,7.94,70a2.67,2.67,0,0,1,1.62-.17c3.84,1.44,7.75,1,11.68.52,6.81-.91,12.7-3.45,16.88-9.19,1.23-1.69,2.73-3.21,3.39-5.26.79-2.47,1.49-5,2.35-7.43A23.91,23.91,0,0,0,45.21,39.39Zm-11.66,8c-.88,4.38-3.78,7.08-7.6,8.85a27.93,27.93,0,0,1-11.9,2.5c-.83-.19-2,.6-2.6-.07s-.17-1.72-.28-2.6c-1-8,0-15.87.37-23.8.28-6.49.64-13,.92-19.47,0-1,.43-1.35,1.37-1.27a3,3,0,0,0,1.2-.05c4.78-1.67,8.53.65,12.28,3.09,2.86,1.86,4.13,4.76,5.31,7.78,2,5.12,1.59,10.49,1.81,15.8A38.87,38.87,0,0,1,33.55,47.34Z"/><path class="cls-7" d="M172.22,90.58c-1.1-.07-2.2,0-3.3,0-.95,0-1.38.35-1.35,1.33,0,1.35,0,2.7,0,4.05s.06,2.51,0,3.75.3,1.79,1.6,1.68c1-.08,1.9,0,2.85,0,2.79-.06,4.53-2,4.6-5C176.68,92.91,175.06,90.76,172.22,90.58Zm2.63,6.94a4.2,4.2,0,0,1-5.41,2.31c-.41-.21-.34-.57-.34-.9,0-1,0-2,0-3a4.29,4.29,0,0,1,0-1.19c.27-.9-.77-2.3.66-2.67,2.56-.66,4.34.18,5,2.06A5.29,5.29,0,0,1,174.85,97.52Z"/><path class="cls-5" d="M94.07,90.56c-.7,0-1.4,0-2.1,0-1.21-.11-1.73.33-1.68,1.61.08,2,0,4.1,0,6.16,0,3.41-.37,3,3.06,3h.75c3.45,0,5.21-1.8,5.22-5.32S97.52,90.57,94.07,90.56Zm3.47,7.12a4.29,4.29,0,0,1-5.38,2.14c-.4-.21-.32-.57-.33-.9,0-1,0-2,0-3a4.37,4.37,0,0,1,0-1.2c.28-.88-.78-2.3.68-2.65,2.6-.64,4.33.19,5,2.08A5.31,5.31,0,0,1,97.54,97.68Z"/><path class="cls-11" d="M41.79,100.6c-1-1-.39-2.6-1.35-3.57-.48-.49-.37-.71.08-1.14a3.15,3.15,0,0,0-2.38-5.33c-1.1,0-2.2,0-3.3,0s-1.56.46-1.57,1.5V96h0c0,1.34,0,2.7,0,4,0,.6.13,1.34.93,1.29s.66-.76.7-1.3a3.38,3.38,0,0,0,0-.45c0-2.41,0-2.37,2.38-2.4,1.42,0,2.3.37,2.34,2a2.27,2.27,0,0,0,1,2.06.76.76,0,0,0,.85,0C41.74,101.07,42,100.77,41.79,100.6Zm-3.88-4.69h-.3C34.9,96,34.32,95.3,35,92.66c.3-1.25,1.36-.32,1.87-.63,2.34,0,3,.44,3,1.85A1.84,1.84,0,0,1,37.91,95.91Z"/><path class="cls-7" d="M141.11,100.61c-.83-1.07-.42-2.59-1.29-3.6-.45-.51-.32-.77.09-1.19a2.87,2.87,0,0,0,.57-3.45,3,3,0,0,0-2.88-1.8c-1.2,0-2.4,0-3.59,0-1,0-1.35.41-1.32,1.36.05,1.34,0,2.69,0,4v4.34c0,.56.19,1,.84,1s.66-.51.66-1V99.4c0-2.27,0-2.27,2.34-2.26h.15c1.87,0,2.15.26,2.31,2.11a2.38,2.38,0,0,0,1,1.92.79.79,0,0,0,.86.06C141.09,101.1,141.25,100.78,141.11,100.61ZM139,94.81a1.76,1.76,0,0,1-1.8,1.1c-1-.1-2.35.48-2.8-.33a4.54,4.54,0,0,1,0-3.21c.24-.78,1.35-.17,1.92-.35C138.77,92,139.83,93.16,139,94.81Z"/><path class="cls-7" d="M217.18,100.64c-.8-1-.44-2.47-1.2-3.47-.45-.59-.47-.9.07-1.45a2.8,2.8,0,0,0,.57-3.18,3,3,0,0,0-2.77-2c-1.3-.07-2.6,0-3.9,0-.92,0-1.21.46-1.19,1.31,0,1.35,0,2.7,0,4v4.2c0,.58.06,1.18.81,1.17s.69-.59.7-1.1v-.45c0-2.63,0-2.58,2.6-2.6,1.48,0,2.27.52,2.21,2.09a2.19,2.19,0,0,0,.94,1.94.84.84,0,0,0,.85.09C217.14,101.13,217.31,100.81,217.18,100.64Zm-2-6.28c-.42,1.49-1.56,1.66-2.84,1.55h-.24c-.53-.12-1.55.33-1.71-.27a12.69,12.69,0,0,1-.1-3.27c0-.07.09-.17.16-.23a10.52,10.52,0,0,1,4,.12A1.84,1.84,0,0,1,215.23,94.36Z"/><path class="cls-3" d="M131.05,100.21c-1.25-3-2.47-6-3.76-9-.39-.9-1.09-1-1.5,0-1.32,3-2.56,6.09-3.81,9.14-.19.46-.14.9.49,1,.72-.06.74-.72,1-1.16s.19-1.45,1-1.5a18.26,18.26,0,0,1,4.05.06c.85.14.76,1.3,1.16,2,.25.42.51.8,1,.53S131.23,100.64,131.05,100.21ZM125.15,97c-.56-.61.43-1.67.7-2.54a1.45,1.45,0,0,1,.78-1.14l1.53,3.78C127,97.22,125.71,97.59,125.15,97Z"/></g></g></svg>