<svg xmlns="http://www.w3.org/2000/svg" xmlns:xlink="http://www.w3.org/1999/xlink" viewBox="0 0 505.59 171.68"><defs><style>.cls-1{fill-opacity:0.07;}.cls-1,.cls-3,.cls-4,.cls-6,.cls-7,.cls-8{fill-rule:evenodd;}.cls-10,.cls-2,.cls-5,.cls-9{fill:none;}.cls-2,.cls-3,.cls-4,.cls-5,.cls-6,.cls-7,.cls-8,.cls-9{stroke:#000;}.cls-2{stroke-width:6.08px;}.cls-3,.cls-4,.cls-6,.cls-7,.cls-8,.cls-9{stroke-width:0.49px;}.cls-3{fill:url(#linear-gradient);}.cls-4{fill:url(#linear-gradient-2);}.cls-10,.cls-5{stroke-linecap:round;}.cls-5{stroke-opacity:0.18;stroke-width:1.82px;}.cls-7{fill:url(#radial-gradient);}.cls-8{fill:url(#linear-gradient-3);}.cls-9{stroke-opacity:0.27;}.cls-10{stroke:#fff;stroke-width:2.43px;}</style><linearGradient id="linear-gradient" x1="254.1" y1="-1918.18" x2="303.93" y2="-2027.61" gradientTransform="matrix(0.74, 0, 0, -0.32, -99.25, -489.05)" gradientUnits="userSpaceOnUse"><stop offset="0" stop-color="#ffecd5"/><stop offset="1" stop-color="#af9143"/></linearGradient><linearGradient id="linear-gradient-2" x1="391.94" y1="-1940.15" x2="448.34" y2="-2039.01" gradientTransform="matrix(0.8, 0, 0, -0.3, -75.18, -498.51)" gradientUnits="userSpaceOnUse"><stop offset="0" stop-color="#efc65c"/><stop offset="1" stop-color="#af9143"/></linearGradient><radialGradient id="radial-gradient" cx="1482.04" cy="-848.01" r="56.31" gradientTransform="matrix(0.47, 0, 0, -0.51, -216.25, -410.62)" gradientUnits="userSpaceOnUse"><stop offset="0" stop-color="#ffe8da"/><stop offset="1" stop-color="#ffc5a5"/></radialGradient><linearGradient id="linear-gradient-3" x1="1432.35" y1="-933.05" x2="1417.12" y2="-834.74" gradientTransform="matrix(0.46, 0, 0, -0.51, -218.04, -408.71)" gradientUnits="userSpaceOnUse"><stop offset="0" stop-color="#fff48f"/><stop offset="1" stop-color="#fffde5"/></linearGradient></defs><title>g30571</title><g id="Layer_2" data-name="Layer 2"><g id="svg1"><g id="g3057"><path id="path872" class="cls-1" d="M84,171.68l339.76-83.5s25.9-4.2,33.61-7.7c10.15-1.06,26.78-3.16,33.78-7.36,10-6,3.67-47.26-14.88-51.46C460.16,19.56,447.9,29,443,29.71c-3.5,0-28,4.21-34.83,7.71-4.9,4.2-339.75,81.91-339.75,81.91s-38.75,29.2-62.56,36.91c7,4.85,10.8,7.66,12.73,9.8C30.18,165.33,62.53,166.49,84,171.68Z"/><path id="path871" class="cls-2" d="M89.46,157.09,429.39,73.41c1.23,0,25.73-4.2,33.43-7.7,10.16-1,28.18-3,35.19-7.17,10-6,3-49.19-15.76-55.49-18.9.35-29.58,7.88-34.48,8.58-3.5,0-25.55,4.55-34.31,7.52-8.4,2.1-339.74,81.57-339.74,81.57S40.56,127.29,6.61,139.37c7,4.86,15.17,10.29,17.1,12.43C35.3,151.09,68,151.9,89.46,157.09Z"/><path id="path849" class="cls-3" d="M75.62,103.34S45.22,128,13,139.88c0,1.73,10.38,7.13,11.36,8.92,23.39-2.07,65.57,5,65.57,5l65.85-21.29-8.42-40.1Z"/><path id="path848" class="cls-4" d="M414.69,22.3,75.82,103.52s90-6,10.85,24.5c85.77-7.7,5.25,24.86,2.45,25.91,14-2.8,339.75-83.67,339.75-83.67S432.89,39.11,414.69,22.3Z"/><path id="path855" class="cls-5" d="M419.45,34.4C412,36.87,140.22,101.6,121.9,107.05"/><path id="path854" class="cls-6" d="M36.32,129.27c0,7.54,7,14.17,8.85,19.49-5.57-.25-19.93-.56-20.55.25-3.15-3.41-10.64-6.63-11.45-9.16C20.54,137.12,24.87,135.08,36.32,129.27Z"/><path id="path857" class="cls-7" d="M462.51,62.65c4-27.65-10.85-46.73-14-48-1.57-.7,31-11.2,34.48-7.87,7.18,1.22,24.16,27,14.53,47.78C496,59.5,465.66,62.48,462.51,62.65Z"/><path id="path856" class="cls-8" d="M428.69,70.26c4-27.65-10.85-46.73-14-48-1.58-.7,32.91-8.22,34.48-7.87s21.18,27.65,14.53,47.78C454.77,65.71,431.84,70.09,428.69,70.26Z"/><path id="path862" class="cls-9" d="M438.75,68.31c4.34-26.24-12.87-47.65-12.87-47.65"/><path id="path863" class="cls-9" d="M454.2,65.28c4.34-26.24-12.87-48.15-12.87-48.15"/><path id="path864" class="cls-10" d="M427.65,20.39c16.68,22,13.32,45.11,13.2,46"/><path id="path866" class="cls-10" d="M443.32,16.89C459.49,40,456.51,61.75,456.39,63"/><path id="path873" class="cls-5" d="M425.88,58.1c-7.42,2.47-279.22,67.2-297.54,72.65"/></g></g></g></svg>